<svg viewBox="-20 -1 342 127" xmlns="http://www.w3.org/2000/svg">
<path d="M32.98704,32.9 L34.98704,32.9 L34.98704,21.5 L32.98704,21.5 z" fill="none" stroke="red" stroke-width="1"/>
<path d="M83.59536,32.9 L85.59536,32.9 L85.59536,21.5 L83.59536,21.5 z" fill="none" stroke="red" stroke-width="1"/>
<path d="M133.30447,32.9 L135.30447,32.9 L135.30447,21.5 L133.30447,21.5 z" fill="none" stroke="red" stroke-width="1"/>
<path d="M184.00449,32.9 L186.00449,32.9 L186.00449,21.5 L184.00449,21.5 z" fill="none" stroke="red" stroke-width="1"/>
<path d="M233.02592,32.9 L235.02592,32.9 L235.02592,21.5 L233.02592,21.5 z" fill="none" stroke="red" stroke-width="1"/>
<path d="M282.9916,32.9 L284.9916,32.9 L284.9916,21.5 L282.9916,21.5 z" fill="none" stroke="red" stroke-width="1"/>
<path d="M49.99656,45.3 L51.99656,45.3 L51.99656,33.9 L49.99656,33.9 z" fill="none" stroke="red" stroke-width="1"/>
<path d="M100.02672,45.3 L102.02672,45.3 L102.02672,33.9 L100.02672,33.9 z" fill="none" stroke="red" stroke-width="1"/>
<path d="M149.67632,45.3 L151.67632,45.3 L151.67632,33.9 L149.67632,33.9 z" fill="none" stroke="red" stroke-width="1"/>
<path d="M200.37633,45.3 L202.37633,45.3 L202.37633,33.9 L200.37633,33.9 z" fill="none" stroke="red" stroke-width="1"/>
<path d="M249.53128,45.3 L251.53128,45.3 L251.53128,33.9 L249.53128,33.9 z" fill="none" stroke="red" stroke-width="1"/>
<path d="M299.58664,45.3 L301.58664,45.3 L301.58664,33.9 L299.58664,33.9 z" fill="none" stroke="red" stroke-width="1"/>
<path d="M66.79088,57.7 L68.79088,57.7 L68.79088,46.3 L66.79088,46.3 z" fill="none" stroke="red" stroke-width="1"/>
<path d="M116.2016,57.7 L118.2016,57.7 L118.2016,46.3 L116.2016,46.3 z" fill="none" stroke="red" stroke-width="1"/>
<path d="M166.64816,57.7 L168.64816,57.7 L168.64816,46.3 L166.64816,46.3 z" fill="none" stroke="red" stroke-width="1"/>
<path d="M216.29697,57.7 L218.29697,57.7 L218.29697,46.3 L216.29697,46.3 z" fill="none" stroke="red" stroke-width="1"/>
<path d="M266.31528,57.7 L268.31528,57.7 L268.31528,46.3 L266.31528,46.3 z" fill="none" stroke="red" stroke-width="1"/>
<path d="M33.10608,70.1 L35.10608,70.1 L35.10608,58.7 L33.10608,58.7 z" fill="none" stroke="red" stroke-width="1"/>
<path d="M83.08944,70.1 L85.08944,70.1 L85.08944,58.7 L83.08944,58.7 z" fill="none" stroke="red" stroke-width="1"/>
<path d="M132.72264,70.1 L134.72264,70.1 L134.72264,58.7 L132.72264,58.7 z" fill="none" stroke="red" stroke-width="1"/>
<path d="M183.32,70.1 L185.32,70.1 L185.32,58.7 L183.32,58.7 z" fill="none" stroke="red" stroke-width="1"/>
<path d="M232.83247,70.1 L234.83247,70.1 L234.83247,58.7 L232.83247,58.7 z" fill="none" stroke="red" stroke-width="1"/>
<path d="M282.9767,70.1 L284.9767,70.1 L284.9767,58.7 L282.9767,58.7 z" fill="none" stroke="red" stroke-width="1"/>
<path d="M49.93704,82.5 L51.93704,82.5 L51.93704,71.1 L49.93704,71.1 z" fill="none" stroke="red" stroke-width="1"/>
<path d="M99.5208,82.5 L101.5208,82.5 L101.5208,71.1 L99.5208,71.1 z" fill="none" stroke="red" stroke-width="1"/>
<path d="M149.15897,82.5 L151.15897,82.5 L151.15897,71.1 L149.15897,71.1 z" fill="none" stroke="red" stroke-width="1"/>
<path d="M199.7372,82.5 L201.7372,82.5 L201.7372,71.1 L199.7372,71.1 z" fill="none" stroke="red" stroke-width="1"/>
<path d="M249.24857,82.5 L251.24857,82.5 L251.24857,71.1 L249.24857,71.1 z" fill="none" stroke="red" stroke-width="1"/>
<path d="M299.57175,82.5 L301.57175,82.5 L301.57175,71.1 L299.57175,71.1 z" fill="none" stroke="red" stroke-width="1"/>
<path d="M66.39249,100.17 L68.39249,100.17 L68.39249,86.44 L66.39249,86.44 z" fill="none" stroke="red" stroke-width="1"/>
<path d="M115.55231,100.17 L117.55231,100.17 L117.55231,86.44 L115.55231,86.44 z" fill="none" stroke="red" stroke-width="1"/>
<path d="M165.88908,100.17 L167.88908,100.17 L167.88908,86.44 L165.88908,86.44 z" fill="none" stroke="red" stroke-width="1"/>
<path d="M216.08543,100.17 L218.08543,100.17 L218.08543,86.44 L216.08543,86.44 z" fill="none" stroke="red" stroke-width="1"/>
<path d="M266.07257,100.17 L268.07257,100.17 L268.07257,86.44 L266.07257,86.44 z" fill="none" stroke="red" stroke-width="1"/>
<path d="M33.245712,114.9 L35.245712,114.9 L35.245712,101.17 L33.245712,101.17 z" fill="none" stroke="red" stroke-width="1"/>
<path d="M82.48948,114.9 L84.48948,114.9 L84.48948,101.17 L82.48948,101.17 z" fill="none" stroke="red" stroke-width="1"/>
<path d="M132.14153,114.9 L134.14153,114.9 L134.14153,101.17 L132.14153,101.17 z" fill="none" stroke="red" stroke-width="1"/>
<path d="M182.51805,114.9 L184.51805,114.9 L184.51805,101.17 L182.51805,101.17 z" fill="none" stroke="red" stroke-width="1"/>
<path d="M232.60884,114.9 L234.60884,114.9 L234.60884,101.17 L232.60884,101.17 z" fill="none" stroke="red" stroke-width="1"/>
<path d="M282.95383,114.9 L284.95383,114.9 L284.95383,101.17 L282.95383,101.17 z" fill="none" stroke="red" stroke-width="1"/>
</svg>